<?xml version="1.0" encoding="utf-8"?>
<!-- Generator: Adobe Illustrator 24.1.2, SVG Export Plug-In . SVG Version: 6.00 Build 0)  -->
<svg version="1.1" id="Capa_1" xmlns="http://www.w3.org/2000/svg" xmlns:xlink="http://www.w3.org/1999/xlink" x="0px" y="0px"
	 viewBox="0 0 144.84 139.27" style="enable-background:new 0 0 144.84 139.27;" xml:space="preserve">
<style type="text/css">
	.st0{fill:#020203;}
</style>
<g>
	<path id="XMLID_8_" class="st0" d="M120.08,78.24l0,58.31h18.08c2.31,0,4.18-1.87,4.18-4.18V76.64l-20.65,0
		C120.79,76.64,120.08,77.36,120.08,78.24z"/>
	<path id="XMLID_7_" class="st0" d="M35.48,107.71l11.17-30.88c-0.06,0-0.12,0-0.18,0l-20.85,0c-1.57,0-3.07-0.07-4.49-0.19
		l11.35,31.08C32.97,109.12,34.97,109.12,35.48,107.71z"/>
	<path id="XMLID_6_" class="st0" d="M65.03,76.61l16.25,0l0-15.24l0-58.64l-23.71,0C67,6.05,71.71,13.99,71.71,24.79l-16.81,0
		c-0.01,0-0.02-0.01-0.02-0.02c-0.01-7.2-3.65-8.7-9.26-8.7l-18.25,0c-5.61,0-10.17,2.23-10.17,9.45l0,26.15
		c0,7.22,3.85,10.12,9.46,10.12l19.15,0c5.61,0,9.08-1.5,9.08-8.71c0,0,0.01-0.01,0.01-0.01l16.82,0
		c-0.48,10.17-7.05,24.56-7.05,24.56"/>
	<polyline id="XMLID_5_" class="st0" points="64.66,77.62 43.21,136.55 65.03,136.55 65.03,76.61 	"/>
	<path id="XMLID_4_" class="st0" d="M102.22,76.64l-20.94,0l0,59.91l22.54,0l0-58.31C103.83,77.36,103.11,76.64,102.22,76.64z"/>
	<path id="XMLID_3_" class="st0" d="M2.22,132.38c0,2.31,1.87,4.18,4.18,4.18h18.16L2.22,75.18L2.22,132.38z"/>
	<path id="XMLID_2_" class="st0" d="M98.31,12.53c-0.89,0-1.6,0.72-1.6,1.6v14.53c0,0.89,0.72,1.6,1.6,1.6l31.63,0v14.11l-31.63,0
		c-0.89,0-1.6,0.72-1.6,1.6V60c0,0.76,0.62,1.38,1.38,1.38l44.25,0l0-48.84L98.31,12.53z"/>
</g>
</svg>
