<?xml version="1.0" encoding="utf-8"?>
<!-- Generator: Adobe Illustrator 24.1.2, SVG Export Plug-In . SVG Version: 6.00 Build 0)  -->
<svg version="1.1" id="Capa_1" xmlns="http://www.w3.org/2000/svg" xmlns:xlink="http://www.w3.org/1999/xlink" x="0px" y="0px"
	 viewBox="0 0 144.84 187" style="enable-background:new 0 0 144.84 187;" xml:space="preserve">
<style type="text/css">
	.st0{fill:#020203;}
</style>
<g>
	<g id="XMLID_353_">
		<g>
			<path id="XMLID_363_" class="st0" d="M10.69,157.16c-0.48,0.28-1.07,0.42-1.75,0.42c-0.68,0-1.29-0.15-1.82-0.46
				c-0.54-0.31-0.99-0.74-1.36-1.29c-0.37-0.55-0.65-1.19-0.84-1.94c-0.2-0.74-0.29-1.55-0.29-2.43c0-0.88,0.1-1.69,0.3-2.44
				c0.2-0.75,0.49-1.39,0.86-1.94s0.83-0.97,1.36-1.28c0.53-0.31,1.13-0.46,1.8-0.46c0.62,0,1.19,0.11,1.7,0.35
				c0.52,0.23,0.94,0.58,1.27,1.05l-0.96,1c-0.25-0.35-0.54-0.61-0.88-0.78c-0.33-0.17-0.69-0.25-1.07-0.25
				c-0.47,0-0.88,0.13-1.22,0.38c-0.34,0.25-0.63,0.59-0.85,1.02c-0.22,0.43-0.39,0.93-0.51,1.51c-0.11,0.58-0.17,1.19-0.17,1.84
				c0,0.65,0.06,1.26,0.17,1.83c0.11,0.57,0.29,1.07,0.52,1.51c0.23,0.43,0.52,0.78,0.87,1.03c0.35,0.25,0.76,0.38,1.23,0.38
				c0.42,0,0.8-0.11,1.13-0.33c0.33-0.22,0.59-0.49,0.78-0.81l0.93,0.97C11.56,156.51,11.17,156.88,10.69,157.16z"/>
			<path id="XMLID_361_" class="st0" d="M13.59,157.3l0-11.66l5.13,0v1.32h-3.63l0,3.67h3.39v1.24h-3.39l0,4.1h3.8v1.33H13.59z"/>
			<path id="XMLID_359_" class="st0" d="M26.38,157.3l-3.89-9.04h-0.05l0,9.04h-1.43l0-11.66h1.86l3.84,9.06h0.05l0-9.06h1.43
				l0,11.66H26.38z"/>
			<path id="XMLID_357_" class="st0" d="M33.48,146.9v10.39h-1.55l0-10.39l-2.32,0v-1.27h6.19v1.27H33.48z"/>
			<path id="XMLID_354_" class="st0" d="M42.21,157.3l-2.06-5.2h-1.41v5.2h-1.51l0-11.66h3.16c0.45,0,0.87,0.06,1.27,0.17
				c0.4,0.11,0.75,0.3,1.04,0.55c0.3,0.25,0.54,0.58,0.71,0.99c0.17,0.41,0.26,0.9,0.26,1.47c0,0.47-0.06,0.88-0.19,1.24
				c-0.13,0.35-0.29,0.65-0.5,0.9c-0.2,0.25-0.43,0.44-0.67,0.59c-0.24,0.14-0.48,0.24-0.71,0.28l2.29,5.48H42.21z M42.11,148.87
				c0-0.4-0.06-0.72-0.17-0.98c-0.11-0.25-0.26-0.46-0.45-0.61c-0.18-0.15-0.39-0.26-0.64-0.32c-0.24-0.06-0.48-0.09-0.72-0.09
				h-1.39v4.07h1.43c0.59,0,1.06-0.18,1.41-0.54C41.93,150.04,42.11,149.53,42.11,148.87z"/>
			<path id="XMLID_350_" class="st0" d="M53.58,151.45c0,0.91-0.09,1.74-0.28,2.5c-0.19,0.75-0.46,1.4-0.83,1.94
				c-0.36,0.54-0.8,0.96-1.31,1.25c-0.51,0.3-1.09,0.44-1.75,0.44s-1.24-0.15-1.75-0.44c-0.52-0.3-0.96-0.71-1.32-1.25
				c-0.36-0.54-0.64-1.18-0.83-1.94c-0.19-0.75-0.28-1.58-0.28-2.5c0-0.91,0.09-1.74,0.28-2.5c0.18-0.75,0.45-1.39,0.81-1.93
				c0.36-0.53,0.79-0.94,1.32-1.24c0.52-0.29,1.12-0.44,1.78-0.44c0.65,0,1.24,0.15,1.75,0.44c0.51,0.29,0.95,0.7,1.31,1.24
				c0.36,0.53,0.64,1.18,0.83,1.93C53.49,149.71,53.58,150.54,53.58,151.45z M51.95,151.45c0-0.66-0.05-1.28-0.16-1.86
				c-0.11-0.58-0.27-1.09-0.48-1.52c-0.21-0.43-0.48-0.77-0.79-1.01s-0.68-0.37-1.09-0.37c-0.42,0-0.8,0.12-1.12,0.37
				c-0.32,0.25-0.59,0.58-0.8,1.01c-0.21,0.43-0.37,0.93-0.47,1.52c-0.1,0.58-0.15,1.2-0.15,1.86c0,0.66,0.05,1.28,0.15,1.86
				c0.1,0.58,0.26,1.09,0.47,1.52c0.21,0.43,0.48,0.77,0.8,1.01c0.32,0.25,0.69,0.37,1.12,0.37c0.41,0,0.78-0.12,1.09-0.37
				s0.58-0.58,0.79-1.01c0.21-0.43,0.37-0.93,0.48-1.52C51.89,152.73,51.95,152.11,51.95,151.45z"/>
			<path id="XMLID_347_" class="st0" d="M66.54,151.48c0,1.89-0.4,3.33-1.2,4.32c-0.8,0.99-1.93,1.49-3.37,1.49h-2.79l0-11.66h2.8
				c1.45,0,2.57,0.5,3.36,1.5C66.14,148.13,66.54,149.58,66.54,151.48z M64.99,151.48c0-0.77-0.08-1.44-0.23-2.01
				c-0.15-0.57-0.37-1.04-0.63-1.42c-0.27-0.37-0.59-0.65-0.96-0.84s-0.77-0.28-1.19-0.28h-1.25l0,9.06h1.25
				c0.42,0,0.82-0.09,1.19-0.28c0.37-0.19,0.69-0.47,0.96-0.84c0.27-0.37,0.48-0.84,0.63-1.41
				C64.91,152.9,64.99,152.24,64.99,151.48z"/>
			<path id="XMLID_345_" class="st0" d="M68.78,157.3l0-11.66h5.13v1.32h-3.63l0,3.67h3.39v1.24h-3.39v4.1h3.8v1.33H68.78z"/>
			<path id="XMLID_343_" class="st0" d="M79.55,157.3l0-11.66h5.13v1.32h-3.63v3.67h3.39l0,1.24h-3.39l0,4.1h3.8v1.33H79.55z"/>
			<path id="XMLID_341_" class="st0" d="M92.47,154.2c0,0.53-0.09,1-0.26,1.42c-0.17,0.42-0.4,0.78-0.7,1.06
				c-0.29,0.29-0.64,0.51-1.04,0.66c-0.4,0.15-0.83,0.23-1.29,0.23c-0.62,0-1.21-0.12-1.76-0.37s-1-0.57-1.33-0.98l0.91-1.07
				c0.26,0.33,0.59,0.59,0.99,0.77c0.4,0.19,0.79,0.28,1.2,0.28c0.52,0,0.94-0.16,1.27-0.49s0.5-0.81,0.5-1.43
				c0-0.3-0.05-0.56-0.15-0.78c-0.1-0.23-0.25-0.43-0.43-0.61c-0.18-0.18-0.39-0.35-0.63-0.49c-0.24-0.15-0.49-0.29-0.77-0.42
				c-0.33-0.15-0.65-0.33-0.94-0.52c-0.29-0.19-0.55-0.41-0.78-0.67c-0.23-0.25-0.41-0.55-0.54-0.9c-0.13-0.35-0.2-0.75-0.2-1.23
				c0-0.56,0.09-1.05,0.28-1.47s0.43-0.76,0.73-1.04s0.65-0.48,1.04-0.61c0.39-0.13,0.79-0.2,1.19-0.2c0.59,0,1.11,0.09,1.57,0.28
				c0.46,0.19,0.85,0.47,1.16,0.84l-0.93,1.05c-0.44-0.55-1.02-0.82-1.76-0.82c-0.22,0-0.43,0.04-0.64,0.11
				c-0.21,0.07-0.4,0.19-0.58,0.35c-0.17,0.16-0.31,0.36-0.41,0.6c-0.1,0.24-0.15,0.53-0.15,0.87c0,0.3,0.05,0.55,0.15,0.77
				s0.23,0.41,0.4,0.58c0.17,0.17,0.36,0.32,0.58,0.46c0.22,0.14,0.45,0.27,0.71,0.39c0.32,0.15,0.64,0.33,0.95,0.52
				c0.31,0.19,0.59,0.42,0.84,0.68c0.25,0.26,0.46,0.57,0.61,0.93S92.47,153.73,92.47,154.2z"/>
			<path id="XMLID_339_" class="st0" d="M97.05,146.9v10.39H95.5V146.9h-2.32v-1.27h6.19v1.27H97.05z"/>
			<path id="XMLID_337_" class="st0" d="M107.66,154.96c-0.13,0.52-0.33,0.97-0.62,1.36c-0.29,0.39-0.66,0.7-1.13,0.92
				c-0.47,0.22-1.04,0.34-1.71,0.34s-1.24-0.11-1.69-0.34c-0.45-0.23-0.82-0.53-1.11-0.92c-0.29-0.39-0.49-0.84-0.61-1.36
				c-0.12-0.52-0.18-1.07-0.18-1.66v-7.66h1.55v7.51c0,0.39,0.03,0.78,0.1,1.14c0.06,0.37,0.17,0.69,0.33,0.98
				c0.15,0.29,0.37,0.51,0.64,0.68c0.27,0.17,0.61,0.25,1.02,0.25s0.75-0.09,1.02-0.25c0.26-0.17,0.47-0.4,0.63-0.68
				c0.15-0.29,0.26-0.61,0.33-0.98c0.06-0.37,0.1-0.75,0.1-1.14v-7.51h1.55v7.66C107.85,153.89,107.79,154.44,107.66,154.96z"/>
			<path id="XMLID_334_" class="st0" d="M117.82,151.48c0,1.89-0.4,3.33-1.2,4.32c-0.8,0.99-1.93,1.49-3.37,1.49h-2.79v-11.66h2.8
				c1.45,0,2.57,0.5,3.36,1.5C117.42,148.13,117.82,149.58,117.82,151.48z M116.27,151.48c0-0.77-0.08-1.44-0.23-2.01
				c-0.15-0.57-0.37-1.04-0.63-1.42c-0.27-0.37-0.59-0.65-0.96-0.84s-0.77-0.28-1.19-0.28H112V156h1.25c0.42,0,0.82-0.09,1.19-0.28
				s0.69-0.47,0.96-0.84c0.27-0.37,0.48-0.84,0.63-1.41S116.27,152.24,116.27,151.48z"/>
			<path id="XMLID_332_" class="st0" d="M120.05,157.3l0-11.66h1.55v11.66H120.05z"/>
			<path id="XMLID_329_" class="st0" d="M132.18,151.45c0,0.91-0.09,1.74-0.28,2.5c-0.19,0.75-0.46,1.4-0.83,1.94
				c-0.36,0.54-0.8,0.96-1.31,1.25c-0.51,0.3-1.09,0.44-1.75,0.44c-0.65,0-1.24-0.15-1.75-0.44c-0.52-0.3-0.96-0.71-1.32-1.25
				c-0.36-0.54-0.64-1.18-0.83-1.94c-0.19-0.75-0.28-1.58-0.28-2.5c0-0.91,0.09-1.74,0.28-2.5c0.18-0.75,0.45-1.39,0.81-1.93
				c0.36-0.53,0.79-0.94,1.32-1.24c0.52-0.29,1.12-0.44,1.78-0.44c0.65,0,1.24,0.15,1.75,0.44c0.51,0.29,0.95,0.7,1.31,1.24
				c0.36,0.53,0.64,1.18,0.83,1.93C132.09,149.71,132.18,150.54,132.18,151.45z M130.55,151.45c0-0.66-0.05-1.28-0.16-1.86
				c-0.11-0.58-0.27-1.09-0.48-1.52c-0.21-0.43-0.48-0.77-0.79-1.01c-0.32-0.25-0.68-0.37-1.09-0.37c-0.42,0-0.8,0.12-1.12,0.37
				c-0.32,0.25-0.59,0.58-0.8,1.01c-0.21,0.43-0.37,0.93-0.47,1.52c-0.1,0.58-0.15,1.2-0.15,1.86c0,0.66,0.05,1.28,0.15,1.86
				c0.1,0.58,0.26,1.09,0.47,1.52c0.21,0.43,0.48,0.77,0.8,1.01c0.32,0.25,0.69,0.37,1.12,0.37c0.41,0,0.78-0.12,1.09-0.37
				s0.58-0.58,0.79-1.01c0.21-0.43,0.37-0.93,0.48-1.52C130.49,152.73,130.55,152.11,130.55,151.45z"/>
			<path id="XMLID_327_" class="st0" d="M139.93,154.2c0,0.53-0.09,1-0.26,1.42c-0.17,0.42-0.4,0.78-0.7,1.06
				c-0.29,0.29-0.64,0.51-1.04,0.66c-0.4,0.15-0.83,0.23-1.29,0.23c-0.62,0-1.21-0.12-1.76-0.37c-0.56-0.25-1-0.57-1.33-0.98
				l0.91-1.07c0.26,0.33,0.59,0.59,0.99,0.77c0.4,0.19,0.79,0.28,1.2,0.28c0.52,0,0.94-0.16,1.27-0.49c0.33-0.33,0.5-0.81,0.5-1.43
				c0-0.3-0.05-0.56-0.15-0.78c-0.1-0.23-0.25-0.43-0.43-0.61c-0.18-0.18-0.39-0.35-0.63-0.49c-0.24-0.15-0.49-0.29-0.77-0.42
				c-0.33-0.15-0.65-0.33-0.94-0.52c-0.29-0.19-0.55-0.41-0.78-0.67c-0.23-0.25-0.41-0.55-0.54-0.9c-0.13-0.35-0.2-0.75-0.2-1.23
				c0-0.56,0.09-1.05,0.28-1.47s0.43-0.76,0.73-1.04s0.65-0.48,1.04-0.61c0.39-0.13,0.79-0.2,1.19-0.2c0.59,0,1.11,0.09,1.57,0.28
				c0.46,0.19,0.85,0.47,1.16,0.84l-0.93,1.05c-0.44-0.55-1.02-0.82-1.76-0.82c-0.22,0-0.43,0.04-0.64,0.11
				c-0.21,0.07-0.4,0.19-0.58,0.35c-0.17,0.16-0.31,0.36-0.41,0.6c-0.1,0.24-0.15,0.53-0.15,0.87c0,0.3,0.05,0.55,0.15,0.77
				c0.1,0.21,0.23,0.41,0.4,0.58c0.17,0.17,0.36,0.32,0.58,0.46c0.22,0.14,0.45,0.27,0.71,0.39c0.32,0.15,0.64,0.33,0.95,0.52
				c0.31,0.19,0.59,0.42,0.84,0.68c0.25,0.26,0.46,0.57,0.61,0.93S139.93,153.73,139.93,154.2z"/>
		</g>
	</g>
	<g id="XMLID_11_">
		<g>
			<path id="XMLID_261_" class="st0" d="M12.78,180.57H8.43l-3.67-16h3.89l2.06,11.71h0.04l2.04-11.71h3.73L12.78,180.57z"/>
			<path id="XMLID_259_" class="st0" d="M18.75,180.57l0-16h3.46l0,16H18.75z"/>
			<path id="XMLID_257_" class="st0" d="M30.6,167.65l0,12.93h-3.37l0-12.93h-2.79v-3.07l8.95,0l0,3.07H30.6z"/>
			<path id="XMLID_255_" class="st0" d="M35.62,180.57l0-16h3.46l0,16H35.62z"/>
			<path id="XMLID_253_" class="st0" d="M49.34,180.57l-4.36,0l-3.67-16h3.89l2.06,11.71h0.04l2.04-11.71h3.73L49.34,180.57z"/>
			<path id="XMLID_251_" class="st0" d="M55.31,180.57l0-16h3.46l0,16H55.31z"/>
			<path id="XMLID_249_" class="st0" d="M68.94,180.57l-3.52-9.74h-0.06l0.09,9.74h-3.07l0-16h3.78l3.5,9.88h0.06l-0.06-9.88h2.96
				v16H68.94z"/>
			<path id="XMLID_247_" class="st0" d="M76.22,180.57v-16l3.46,0l0,16H76.22z"/>
			<path id="XMLID_245_" class="st0" d="M91.14,180.38c-0.67,0.41-1.53,0.62-2.58,0.62c-0.89,0-1.69-0.21-2.42-0.62
				c-0.72-0.41-1.34-0.99-1.86-1.74c-0.52-0.75-0.92-1.63-1.2-2.67c-0.29-1.03-0.43-2.17-0.43-3.4c0-1.25,0.14-2.39,0.43-3.43
				c0.29-1.04,0.69-1.93,1.2-2.67c0.52-0.74,1.13-1.31,1.86-1.72c0.72-0.41,1.53-0.61,2.42-0.61c1.02,0,1.86,0.19,2.54,0.58
				c0.68,0.38,1.23,0.86,1.64,1.44l-1.85,2.62c-0.26-0.36-0.55-0.65-0.87-0.86c-0.32-0.21-0.73-0.32-1.21-0.32
				c-0.46,0-0.86,0.13-1.19,0.38c-0.34,0.26-0.62,0.61-0.86,1.05c-0.24,0.44-0.41,0.97-0.53,1.58c-0.11,0.61-0.17,1.26-0.17,1.95
				c0,0.69,0.06,1.34,0.17,1.94c0.11,0.6,0.29,1.13,0.53,1.58c0.24,0.45,0.53,0.81,0.87,1.06s0.74,0.38,1.2,0.38s0.86-0.12,1.2-0.36
				c0.34-0.24,0.62-0.53,0.82-0.86l1.91,2.51C92.36,179.45,91.81,179.96,91.14,180.38z"/>
			<path id="XMLID_242_" class="st0" d="M105.97,172.53c0,1.26-0.14,2.42-0.41,3.47c-0.27,1.05-0.66,1.94-1.16,2.68
				c-0.5,0.74-1.11,1.31-1.84,1.72c-0.72,0.41-1.54,0.61-2.44,0.61c-0.9,0-1.71-0.2-2.44-0.61s-1.33-0.98-1.83-1.72
				c-0.5-0.74-0.89-1.63-1.16-2.68c-0.27-1.05-0.41-2.2-0.41-3.47c0-1.27,0.13-2.41,0.4-3.45c0.27-1.03,0.65-1.91,1.15-2.64
				c0.5-0.73,1.11-1.3,1.83-1.69s1.54-0.6,2.46-0.6c0.9,0,1.71,0.2,2.44,0.6s1.34,0.96,1.84,1.69c0.5,0.73,0.89,1.61,1.16,2.64
				C105.84,170.11,105.97,171.26,105.97,172.53z M102.45,172.53c0-0.69-0.05-1.34-0.15-1.93c-0.1-0.59-0.25-1.11-0.44-1.55
				c-0.19-0.44-0.43-0.78-0.72-1.03c-0.29-0.25-0.62-0.37-1.01-0.37c-0.39,0-0.73,0.12-1.02,0.37c-0.29,0.25-0.54,0.59-0.73,1.03
				c-0.19,0.44-0.34,0.95-0.43,1.55c-0.09,0.6-0.14,1.24-0.14,1.93c0,0.69,0.05,1.34,0.14,1.94c0.09,0.6,0.24,1.12,0.43,1.56
				c0.19,0.44,0.44,0.78,0.73,1.04c0.29,0.26,0.63,0.38,1.02,0.38c0.39,0,0.72-0.13,1.01-0.38c0.29-0.26,0.53-0.6,0.72-1.04
				c0.19-0.44,0.34-0.96,0.44-1.56C102.4,173.87,102.45,173.22,102.45,172.53z"/>
			<path id="XMLID_240_" class="st0" d="M108.96,180.57l0-16h3.48v12.65h4.06v3.34H108.96z"/>
			<path id="XMLID_237_" class="st0" d="M125.68,180.57l-0.62-2.91h-3.41l-0.62,2.91h-3.43l3.69-16h4.32l3.67,16H125.68z
				 M123.41,168.05h-0.09l-1.29,6.8h2.6L123.41,168.05z"/>
			<path id="XMLID_235_" class="st0" d="M137.79,168.39c-0.26-0.32-0.56-0.56-0.9-0.73s-0.7-0.26-1.07-0.26
				c-0.39,0-0.73,0.13-1.04,0.39c-0.31,0.26-0.46,0.68-0.46,1.27c0,0.5,0.16,0.89,0.47,1.17c0.31,0.28,0.78,0.59,1.4,0.92
				c0.34,0.18,0.71,0.4,1.09,0.65c0.38,0.25,0.73,0.55,1.05,0.92c0.32,0.36,0.58,0.8,0.79,1.3c0.21,0.51,0.31,1.11,0.31,1.8
				c0,0.86-0.13,1.62-0.39,2.28c-0.26,0.66-0.61,1.2-1.05,1.63c-0.44,0.43-0.95,0.75-1.52,0.97c-0.58,0.22-1.17,0.33-1.79,0.33
				c-0.92,0-1.75-0.18-2.5-0.54c-0.75-0.36-1.36-0.78-1.81-1.27l1.76-2.71c0.33,0.36,0.71,0.65,1.14,0.87
				c0.43,0.22,0.87,0.33,1.31,0.33c0.41,0,0.76-0.14,1.05-0.43c0.29-0.29,0.43-0.69,0.43-1.2c0-0.53-0.17-0.95-0.52-1.25
				c-0.34-0.31-0.84-0.64-1.5-0.98c-0.41-0.21-0.8-0.44-1.17-0.7c-0.36-0.26-0.69-0.56-0.97-0.93c-0.28-0.36-0.5-0.78-0.65-1.26
				c-0.16-0.48-0.24-1.05-0.24-1.72c0-0.89,0.14-1.65,0.42-2.29c0.28-0.64,0.64-1.16,1.1-1.57c0.45-0.41,0.95-0.71,1.5-0.9
				c0.55-0.2,1.11-0.29,1.66-0.29c0.83,0,1.57,0.14,2.23,0.43c0.66,0.28,1.21,0.67,1.65,1.17L137.79,168.39z"/>
		</g>
	</g>
	<polygon id="XMLID_10_" class="st0" points="78.69,163.44 76.86,163.44 78.38,161.43 80.58,161.43 	"/>
	<path id="XMLID_8_" class="st0" d="M117.85,77.89l0,55.52l17.22,0c2.2,0,3.98-1.78,3.98-3.98l0-53.07l-19.66,0
		C118.54,76.37,117.85,77.05,117.85,77.89z"/>
	<path id="XMLID_7_" class="st0" d="M37.3,105.95l10.63-29.41c-0.06,0-0.11,0-0.17,0l-19.86,0c-1.5,0-2.92-0.06-4.28-0.18
		l10.81,29.59C34.92,107.29,36.82,107.29,37.3,105.95z"/>
	<path id="XMLID_6_" class="st0" d="M65.45,76.34l15.47,0V61.83l0-55.83L58.34,6C67.31,9.15,71.8,16.71,71.8,27L55.8,27
		c-0.01,0-0.02-0.01-0.02-0.02c-0.01-6.85-3.48-8.28-8.82-8.28l-17.38,0c-5.34,0-9.69,2.12-9.69,8.99l0,24.9
		c0,6.87,3.66,9.64,9.01,9.64l18.23,0c5.34,0,8.64-1.43,8.65-8.29c0,0,0.01-0.01,0.01-0.01l16.01,0
		c-0.45,9.68-6.72,23.38-6.72,23.38"/>
	<polyline id="XMLID_5_" class="st0" points="65.09,77.3 44.66,133.41 65.45,133.41 65.45,76.34 	"/>
	<path id="XMLID_4_" class="st0" d="M100.86,76.37H80.92l0,57.05h21.47l0-55.52C102.38,77.05,101.7,76.37,100.86,76.37z"/>
	<path id="XMLID_3_" class="st0" d="M5.64,129.44c0,2.2,1.78,3.98,3.98,3.98l17.29,0L5.64,74.97L5.64,129.44z"/>
	<path id="XMLID_2_" class="st0" d="M97.13,15.33c-0.84,0-1.53,0.68-1.53,1.53v13.83c0,0.84,0.68,1.53,1.53,1.53l30.12,0v13.44
		l-30.12,0c-0.84,0-1.53,0.68-1.53,1.53v13.34c0,0.72,0.59,1.31,1.31,1.31l42.14,0l0-46.5L97.13,15.33z"/>
</g>
</svg>
