<?xml version="1.0" encoding="utf-8"?>
<!-- Generator: Adobe Illustrator 24.1.2, SVG Export Plug-In . SVG Version: 6.00 Build 0)  -->
<svg version="1.1" id="Capa_1" xmlns="http://www.w3.org/2000/svg" xmlns:xlink="http://www.w3.org/1999/xlink" x="0px" y="0px"
	 viewBox="0 0 415 187" style="enable-background:new 0 0 415 187;" xml:space="preserve">
<style type="text/css">
	.st0{fill:#020203;}
	.st1{fill:none;stroke:#020203;stroke-width:2;stroke-linecap:round;stroke-miterlimit:10;}
	.st2{fill-rule:evenodd;clip-rule:evenodd;fill:#020203;}
</style>
<g>
	<g id="XMLID_353_">
		<g>
			<path id="XMLID_363_" class="st0" d="M280.85,157.16c-0.48,0.28-1.07,0.42-1.75,0.42c-0.68,0-1.29-0.15-1.82-0.46
				c-0.54-0.31-0.99-0.74-1.36-1.29c-0.37-0.55-0.65-1.19-0.84-1.94c-0.2-0.74-0.29-1.55-0.29-2.43s0.1-1.69,0.3-2.44
				c0.2-0.75,0.49-1.39,0.86-1.94s0.83-0.97,1.36-1.28c0.53-0.31,1.13-0.46,1.8-0.46c0.62,0,1.19,0.11,1.7,0.35
				c0.52,0.23,0.94,0.58,1.27,1.05l-0.96,1c-0.25-0.35-0.54-0.61-0.88-0.78c-0.33-0.17-0.69-0.25-1.07-0.25
				c-0.47,0-0.88,0.13-1.22,0.38c-0.34,0.25-0.63,0.59-0.85,1.02c-0.22,0.43-0.39,0.93-0.51,1.51s-0.17,1.19-0.17,1.84
				s0.06,1.26,0.17,1.83c0.11,0.57,0.29,1.07,0.52,1.51c0.23,0.43,0.52,0.78,0.87,1.03c0.35,0.25,0.76,0.38,1.23,0.38
				c0.42,0,0.8-0.11,1.13-0.33c0.33-0.22,0.59-0.49,0.78-0.81l0.93,0.97C281.72,156.51,281.33,156.88,280.85,157.16z"/>
			<path id="XMLID_361_" class="st0" d="M283.75,157.3v-11.66l5.13,0v1.32h-3.63v3.67h3.39v1.24h-3.39v4.1h3.8v1.33H283.75z"/>
			<path id="XMLID_359_" class="st0" d="M296.54,157.3l-3.89-9.04h-0.05v9.04h-1.43v-11.66h1.86l3.84,9.06h0.05v-9.06h1.43l0,11.66
				H296.54z"/>
			<path id="XMLID_357_" class="st0" d="M303.64,146.9l0,10.39h-1.55V146.9l-2.32,0v-1.27h6.19v1.27H303.64z"/>
			<path id="XMLID_354_" class="st0" d="M312.37,157.3l-2.06-5.2h-1.41v5.2h-1.51v-11.66h3.16c0.45,0,0.87,0.06,1.27,0.17
				c0.4,0.11,0.75,0.3,1.04,0.55c0.3,0.25,0.54,0.58,0.71,0.99c0.17,0.41,0.26,0.9,0.26,1.47c0,0.47-0.06,0.88-0.19,1.24
				c-0.13,0.35-0.29,0.65-0.5,0.9c-0.2,0.25-0.43,0.44-0.67,0.59c-0.24,0.14-0.48,0.24-0.71,0.28l2.29,5.48H312.37z M312.26,148.87
				c0-0.4-0.06-0.72-0.17-0.98s-0.26-0.46-0.45-0.61c-0.18-0.15-0.39-0.26-0.64-0.32c-0.24-0.06-0.48-0.09-0.72-0.09h-1.39v4.07
				h1.43c0.59,0,1.06-0.18,1.41-0.54C312.09,150.04,312.26,149.53,312.26,148.87z"/>
			<path id="XMLID_350_" class="st0" d="M323.74,151.45c0,0.91-0.09,1.74-0.28,2.5c-0.19,0.75-0.46,1.4-0.83,1.94
				c-0.36,0.54-0.8,0.96-1.31,1.25c-0.51,0.3-1.09,0.44-1.75,0.44s-1.24-0.15-1.75-0.44c-0.52-0.3-0.96-0.71-1.32-1.25
				c-0.36-0.54-0.64-1.18-0.83-1.94c-0.19-0.75-0.28-1.58-0.28-2.5c0-0.91,0.09-1.74,0.28-2.5c0.18-0.75,0.45-1.39,0.81-1.93
				c0.36-0.53,0.79-0.94,1.32-1.24c0.52-0.29,1.12-0.44,1.78-0.44c0.65,0,1.24,0.15,1.75,0.44c0.51,0.29,0.95,0.7,1.31,1.24
				c0.36,0.53,0.64,1.18,0.83,1.93C323.65,149.71,323.74,150.54,323.74,151.45z M322.11,151.45c0-0.66-0.05-1.28-0.16-1.86
				c-0.11-0.58-0.27-1.09-0.48-1.52c-0.21-0.43-0.48-0.77-0.79-1.01c-0.32-0.25-0.68-0.37-1.09-0.37c-0.42,0-0.8,0.12-1.12,0.37
				c-0.32,0.25-0.59,0.58-0.8,1.01c-0.21,0.43-0.37,0.93-0.47,1.52c-0.1,0.58-0.15,1.2-0.15,1.86c0,0.66,0.05,1.28,0.15,1.86
				c0.1,0.58,0.26,1.09,0.47,1.52c0.21,0.43,0.48,0.77,0.8,1.01c0.32,0.25,0.69,0.37,1.12,0.37c0.41,0,0.78-0.12,1.09-0.37
				c0.32-0.25,0.58-0.58,0.79-1.01c0.21-0.43,0.37-0.93,0.48-1.52C322.05,152.73,322.11,152.11,322.11,151.45z"/>
			<path id="XMLID_347_" class="st0" d="M336.7,151.48c0,1.89-0.4,3.33-1.2,4.32c-0.8,0.99-1.93,1.49-3.37,1.49h-2.79v-11.66h2.8
				c1.45,0,2.57,0.5,3.36,1.5C336.3,148.13,336.7,149.58,336.7,151.48z M335.15,151.48c0-0.77-0.08-1.44-0.23-2.01
				c-0.15-0.57-0.37-1.04-0.63-1.42s-0.59-0.65-0.96-0.84c-0.37-0.19-0.77-0.28-1.19-0.28h-1.25V156h1.25
				c0.42,0,0.82-0.09,1.19-0.28c0.37-0.19,0.69-0.47,0.96-0.84s0.48-0.84,0.63-1.41C335.07,152.9,335.15,152.24,335.15,151.48z"/>
			<path id="XMLID_345_" class="st0" d="M338.93,157.3v-11.66h5.13v1.32h-3.63v3.67h3.39v1.24h-3.39v4.1h3.8v1.33H338.93z"/>
			<path id="XMLID_343_" class="st0" d="M349.71,157.3v-11.66h5.13v1.32h-3.63v3.67h3.39l0,1.24h-3.39v4.1h3.8v1.33H349.71z"/>
			<path id="XMLID_341_" class="st0" d="M362.63,154.2c0,0.53-0.09,1-0.26,1.42c-0.17,0.42-0.4,0.78-0.7,1.06
				c-0.29,0.29-0.64,0.51-1.04,0.66c-0.4,0.15-0.83,0.23-1.29,0.23c-0.62,0-1.21-0.12-1.76-0.37c-0.56-0.25-1-0.57-1.33-0.98
				l0.91-1.07c0.26,0.33,0.59,0.59,0.99,0.77c0.4,0.19,0.79,0.28,1.2,0.28c0.52,0,0.94-0.16,1.27-0.49c0.33-0.33,0.5-0.81,0.5-1.43
				c0-0.3-0.05-0.56-0.15-0.78c-0.1-0.23-0.25-0.43-0.43-0.61c-0.18-0.18-0.39-0.35-0.63-0.49c-0.24-0.15-0.49-0.29-0.77-0.42
				c-0.33-0.15-0.65-0.33-0.94-0.52c-0.29-0.19-0.55-0.41-0.78-0.67c-0.23-0.25-0.41-0.55-0.54-0.9c-0.13-0.35-0.2-0.75-0.2-1.23
				c0-0.56,0.09-1.05,0.28-1.47s0.43-0.76,0.73-1.04s0.65-0.48,1.04-0.61c0.39-0.13,0.79-0.2,1.19-0.2c0.59,0,1.11,0.09,1.57,0.28
				s0.85,0.47,1.16,0.84l-0.93,1.05c-0.44-0.55-1.02-0.82-1.76-0.82c-0.22,0-0.43,0.04-0.64,0.11c-0.21,0.07-0.4,0.19-0.58,0.35
				c-0.17,0.16-0.31,0.36-0.41,0.6c-0.1,0.24-0.15,0.53-0.15,0.87c0,0.3,0.05,0.55,0.15,0.77s0.23,0.41,0.4,0.58
				s0.36,0.32,0.58,0.46c0.22,0.14,0.45,0.27,0.71,0.39c0.32,0.15,0.64,0.33,0.95,0.52c0.31,0.19,0.59,0.42,0.84,0.68
				c0.25,0.26,0.46,0.57,0.61,0.93C362.55,153.31,362.63,153.73,362.63,154.2z"/>
			<path id="XMLID_339_" class="st0" d="M367.21,146.9v10.39h-1.55V146.9h-2.32v-1.27h6.19v1.27H367.21z"/>
			<path id="XMLID_337_" class="st0" d="M377.82,154.96c-0.13,0.52-0.33,0.97-0.62,1.36c-0.29,0.39-0.66,0.7-1.13,0.92
				c-0.47,0.22-1.04,0.34-1.71,0.34c-0.68,0-1.24-0.11-1.69-0.34c-0.45-0.23-0.82-0.53-1.11-0.92c-0.29-0.39-0.49-0.84-0.61-1.36
				c-0.12-0.52-0.18-1.07-0.18-1.66v-7.66h1.55v7.51c0,0.39,0.03,0.78,0.1,1.14c0.06,0.37,0.17,0.69,0.33,0.98
				c0.15,0.29,0.37,0.51,0.64,0.68c0.27,0.17,0.61,0.25,1.02,0.25s0.75-0.09,1.02-0.25c0.26-0.17,0.47-0.4,0.63-0.68
				c0.15-0.29,0.26-0.61,0.33-0.98c0.06-0.37,0.1-0.75,0.1-1.14v-7.51h1.55v7.66C378.01,153.89,377.95,154.44,377.82,154.96z"/>
			<path id="XMLID_334_" class="st0" d="M387.97,151.48c0,1.89-0.4,3.33-1.2,4.32c-0.8,0.99-1.93,1.49-3.37,1.49h-2.79v-11.66h2.8
				c1.45,0,2.57,0.5,3.36,1.5C387.58,148.13,387.97,149.58,387.97,151.48z M386.42,151.48c0-0.77-0.08-1.44-0.23-2.01
				c-0.15-0.57-0.37-1.04-0.63-1.42c-0.27-0.37-0.59-0.65-0.96-0.84c-0.37-0.19-0.77-0.28-1.19-0.28h-1.25V156h1.25
				c0.42,0,0.82-0.09,1.19-0.28c0.37-0.19,0.69-0.47,0.96-0.84c0.27-0.37,0.48-0.84,0.63-1.41
				C386.35,152.9,386.42,152.24,386.42,151.48z"/>
			<path id="XMLID_332_" class="st0" d="M390.21,157.3v-11.66h1.55v11.66H390.21z"/>
			<path id="XMLID_329_" class="st0" d="M402.34,151.45c0,0.91-0.09,1.74-0.28,2.5c-0.19,0.75-0.46,1.4-0.83,1.94
				c-0.36,0.54-0.8,0.96-1.31,1.25c-0.51,0.3-1.09,0.44-1.75,0.44s-1.24-0.15-1.75-0.44c-0.52-0.3-0.96-0.71-1.32-1.25
				c-0.36-0.54-0.64-1.18-0.83-1.94c-0.19-0.75-0.28-1.58-0.28-2.5c0-0.91,0.09-1.74,0.28-2.5c0.18-0.75,0.45-1.39,0.81-1.93
				c0.36-0.53,0.79-0.94,1.32-1.24c0.52-0.29,1.12-0.44,1.78-0.44c0.65,0,1.24,0.15,1.75,0.44c0.51,0.29,0.95,0.7,1.31,1.24
				c0.36,0.53,0.64,1.18,0.83,1.93C402.25,149.71,402.34,150.54,402.34,151.45z M400.71,151.45c0-0.66-0.05-1.28-0.16-1.86
				c-0.11-0.58-0.27-1.09-0.48-1.52c-0.21-0.43-0.48-0.77-0.79-1.01c-0.32-0.25-0.68-0.37-1.09-0.37c-0.42,0-0.8,0.12-1.12,0.37
				c-0.32,0.25-0.59,0.58-0.8,1.01c-0.21,0.43-0.37,0.93-0.47,1.52c-0.1,0.58-0.15,1.2-0.15,1.86c0,0.66,0.05,1.28,0.15,1.86
				c0.1,0.58,0.26,1.09,0.47,1.52c0.21,0.43,0.48,0.77,0.8,1.01c0.32,0.25,0.69,0.37,1.12,0.37c0.41,0,0.78-0.12,1.09-0.37
				c0.32-0.25,0.58-0.58,0.79-1.01c0.21-0.43,0.37-0.93,0.48-1.52C400.65,152.73,400.71,152.11,400.71,151.45z"/>
			<path id="XMLID_327_" class="st0" d="M410.08,154.2c0,0.53-0.09,1-0.26,1.42c-0.17,0.42-0.4,0.78-0.7,1.06
				c-0.29,0.29-0.64,0.51-1.04,0.66c-0.4,0.15-0.83,0.23-1.29,0.23c-0.62,0-1.21-0.12-1.76-0.37s-1-0.57-1.33-0.98l0.91-1.07
				c0.26,0.33,0.59,0.59,0.99,0.77c0.4,0.19,0.79,0.28,1.2,0.28c0.52,0,0.94-0.16,1.27-0.49s0.5-0.81,0.5-1.43
				c0-0.3-0.05-0.56-0.15-0.78c-0.1-0.23-0.25-0.43-0.43-0.61c-0.18-0.18-0.39-0.35-0.63-0.49c-0.24-0.15-0.49-0.29-0.77-0.42
				c-0.33-0.15-0.65-0.33-0.94-0.52c-0.29-0.19-0.55-0.41-0.78-0.67c-0.23-0.25-0.41-0.55-0.54-0.9c-0.13-0.35-0.2-0.75-0.2-1.23
				c0-0.56,0.09-1.05,0.28-1.47s0.43-0.76,0.73-1.04s0.65-0.48,1.04-0.61c0.39-0.13,0.79-0.2,1.19-0.2c0.59,0,1.11,0.09,1.57,0.28
				s0.85,0.47,1.16,0.84l-0.93,1.05c-0.44-0.55-1.02-0.82-1.76-0.82c-0.22,0-0.43,0.04-0.64,0.11c-0.21,0.07-0.4,0.19-0.58,0.35
				c-0.17,0.16-0.31,0.36-0.41,0.6c-0.1,0.24-0.15,0.53-0.15,0.87c0,0.3,0.05,0.55,0.15,0.77c0.1,0.21,0.23,0.41,0.4,0.58
				c0.17,0.17,0.36,0.32,0.58,0.46c0.22,0.14,0.45,0.27,0.71,0.39c0.32,0.15,0.64,0.33,0.95,0.52c0.31,0.19,0.59,0.42,0.84,0.68
				c0.25,0.26,0.46,0.57,0.61,0.93C410.01,153.31,410.08,153.73,410.08,154.2z"/>
		</g>
	</g>
	<g id="XMLID_11_">
		<g>
			<path id="XMLID_261_" class="st0" d="M282.94,180.57h-4.36l-3.67-16h3.89l2.06,11.71h0.04l2.04-11.71h3.73L282.94,180.57z"/>
			<path id="XMLID_259_" class="st0" d="M288.91,180.57v-16h3.46v16H288.91z"/>
			<path id="XMLID_257_" class="st0" d="M300.76,167.65v12.93h-3.37v-12.93h-2.79v-3.07l8.95,0v3.07H300.76z"/>
			<path id="XMLID_255_" class="st0" d="M305.78,180.57v-16h3.46v16H305.78z"/>
			<path id="XMLID_253_" class="st0" d="M319.5,180.57l-4.36,0l-3.67-16h3.89l2.06,11.71h0.04l2.04-11.71h3.73L319.5,180.57z"/>
			<path id="XMLID_251_" class="st0" d="M325.47,180.57l0-16h3.46v16H325.47z"/>
			<path id="XMLID_249_" class="st0" d="M339.1,180.57l-3.52-9.74h-0.06l0.09,9.74h-3.07v-16h3.78l3.5,9.88h0.06l-0.06-9.88h2.96v16
				H339.1z"/>
			<path id="XMLID_247_" class="st0" d="M346.38,180.57v-16l3.46,0v16H346.38z"/>
			<path id="XMLID_245_" class="st0" d="M361.3,180.38c-0.67,0.41-1.53,0.62-2.58,0.62c-0.89,0-1.69-0.21-2.42-0.62
				c-0.72-0.41-1.34-0.99-1.86-1.74c-0.52-0.75-0.92-1.63-1.2-2.67c-0.29-1.03-0.43-2.17-0.43-3.4c0-1.25,0.14-2.39,0.43-3.43
				c0.29-1.04,0.69-1.93,1.2-2.67c0.52-0.74,1.13-1.31,1.86-1.72c0.72-0.41,1.53-0.61,2.42-0.61c1.02,0,1.86,0.19,2.54,0.58
				c0.68,0.38,1.23,0.86,1.64,1.44l-1.85,2.62c-0.26-0.36-0.55-0.65-0.87-0.86c-0.32-0.21-0.73-0.32-1.21-0.32
				c-0.46,0-0.86,0.13-1.19,0.38c-0.34,0.26-0.62,0.61-0.86,1.05c-0.24,0.44-0.41,0.97-0.53,1.58c-0.11,0.61-0.17,1.26-0.17,1.95
				c0,0.69,0.06,1.34,0.17,1.94c0.11,0.6,0.29,1.13,0.53,1.58c0.24,0.45,0.53,0.81,0.87,1.06c0.34,0.26,0.74,0.38,1.2,0.38
				c0.46,0,0.86-0.12,1.2-0.36c0.34-0.24,0.62-0.53,0.82-0.86l1.91,2.51C362.51,179.45,361.97,179.96,361.3,180.38z"/>
			<path id="XMLID_242_" class="st0" d="M376.13,172.53c0,1.26-0.14,2.42-0.41,3.47c-0.27,1.05-0.66,1.94-1.16,2.68
				c-0.5,0.74-1.11,1.31-1.84,1.72c-0.72,0.41-1.54,0.61-2.44,0.61c-0.9,0-1.71-0.2-2.44-0.61s-1.33-0.98-1.83-1.72
				c-0.5-0.74-0.89-1.63-1.16-2.68c-0.27-1.05-0.41-2.2-0.41-3.47c0-1.27,0.13-2.41,0.4-3.45c0.27-1.03,0.65-1.91,1.15-2.64
				c0.5-0.73,1.11-1.3,1.83-1.69s1.54-0.6,2.46-0.6c0.9,0,1.71,0.2,2.44,0.6s1.34,0.96,1.84,1.69c0.5,0.73,0.89,1.61,1.16,2.64
				C376,170.11,376.13,171.26,376.13,172.53z M372.61,172.53c0-0.69-0.05-1.34-0.15-1.93c-0.1-0.59-0.25-1.11-0.44-1.55
				c-0.19-0.44-0.43-0.78-0.72-1.03c-0.29-0.25-0.62-0.37-1.01-0.37c-0.39,0-0.73,0.12-1.02,0.37c-0.29,0.25-0.54,0.59-0.73,1.03
				c-0.19,0.44-0.34,0.95-0.43,1.55c-0.09,0.6-0.14,1.24-0.14,1.93c0,0.69,0.05,1.34,0.14,1.94c0.09,0.6,0.24,1.12,0.43,1.56
				c0.19,0.44,0.44,0.78,0.73,1.04c0.29,0.26,0.63,0.38,1.02,0.38c0.39,0,0.72-0.13,1.01-0.38c0.29-0.26,0.53-0.6,0.72-1.04
				c0.19-0.44,0.34-0.96,0.44-1.56S372.61,173.22,372.61,172.53z"/>
			<path id="XMLID_240_" class="st0" d="M379.12,180.57v-16h3.48v12.65h4.06v3.34H379.12z"/>
			<path id="XMLID_237_" class="st0" d="M395.84,180.57l-0.62-2.91h-3.41l-0.62,2.91h-3.43l3.69-16h4.32l3.67,16H395.84z
				 M393.56,168.05h-0.09l-1.29,6.8h2.6L393.56,168.05z"/>
			<path id="XMLID_235_" class="st0" d="M407.95,168.39c-0.26-0.32-0.56-0.56-0.9-0.73s-0.7-0.26-1.07-0.26
				c-0.39,0-0.73,0.13-1.04,0.39c-0.31,0.26-0.46,0.68-0.46,1.27c0,0.5,0.16,0.89,0.47,1.17c0.31,0.28,0.78,0.59,1.4,0.92
				c0.34,0.18,0.71,0.4,1.09,0.65s0.73,0.55,1.05,0.92c0.32,0.36,0.58,0.8,0.79,1.3c0.21,0.51,0.31,1.11,0.31,1.8
				c0,0.86-0.13,1.62-0.39,2.28c-0.26,0.66-0.61,1.2-1.05,1.63c-0.44,0.43-0.95,0.75-1.52,0.97c-0.58,0.22-1.17,0.33-1.79,0.33
				c-0.92,0-1.75-0.18-2.5-0.54s-1.36-0.78-1.81-1.27l1.76-2.71c0.33,0.36,0.71,0.65,1.14,0.87c0.43,0.22,0.87,0.33,1.31,0.33
				c0.41,0,0.76-0.14,1.05-0.43s0.43-0.69,0.43-1.2c0-0.53-0.17-0.95-0.52-1.25c-0.34-0.31-0.84-0.64-1.5-0.98
				c-0.41-0.21-0.8-0.44-1.17-0.7c-0.36-0.26-0.69-0.56-0.97-0.93c-0.28-0.36-0.5-0.78-0.65-1.26c-0.16-0.48-0.24-1.05-0.24-1.72
				c0-0.89,0.14-1.65,0.42-2.29c0.28-0.64,0.64-1.16,1.1-1.57c0.45-0.41,0.95-0.71,1.5-0.9c0.55-0.2,1.11-0.29,1.66-0.29
				c0.83,0,1.57,0.14,2.23,0.43c0.66,0.28,1.21,0.67,1.65,1.17L407.95,168.39z"/>
		</g>
	</g>
	<polygon id="XMLID_10_" class="st0" points="348.85,163.44 347.02,163.44 348.54,161.43 350.74,161.43 	"/>
	<path id="XMLID_8_" class="st0" d="M388.01,77.89v55.52l17.22,0c2.2,0,3.98-1.78,3.98-3.98V76.37l-19.66,0
		C388.7,76.37,388.01,77.05,388.01,77.89z"/>
	<path id="XMLID_7_" class="st0" d="M307.46,105.95l10.63-29.41c-0.06,0-0.11,0-0.17,0l-19.86,0c-1.5,0-2.92-0.06-4.28-0.18
		l10.81,29.59C305.08,107.29,306.98,107.29,307.46,105.95z"/>
	<path id="XMLID_6_" class="st0" d="M335.6,76.34l15.47,0V61.83l0-55.83L328.5,6c8.98,3.15,13.46,10.71,13.46,21l-16.01,0
		c-0.01,0-0.02-0.01-0.02-0.02c-0.01-6.85-3.48-8.28-8.82-8.28l-17.38,0c-5.34,0-9.69,2.12-9.69,8.99v24.9
		c0,6.87,3.66,9.64,9.01,9.64l18.23,0c5.34,0,8.64-1.43,8.65-8.29c0,0,0.01-0.01,0.01-0.01l16.01,0
		c-0.45,9.68-6.72,23.38-6.72,23.38"/>
	<polyline id="XMLID_5_" class="st0" points="335.25,77.3 314.82,133.41 335.6,133.41 335.6,76.34 	"/>
	<path id="XMLID_4_" class="st0" d="M371.01,76.37h-19.94v57.05h21.47V77.89C372.54,77.05,371.86,76.37,371.01,76.37z"/>
	<path id="XMLID_3_" class="st0" d="M275.79,129.44c0,2.2,1.78,3.98,3.98,3.98l17.29,0l-21.27-58.44V129.44z"/>
	<path id="XMLID_2_" class="st0" d="M367.29,15.33c-0.84,0-1.53,0.68-1.53,1.53v13.83c0,0.84,0.68,1.53,1.53,1.53l30.12,0v13.44
		l-30.12,0c-0.84,0-1.53,0.68-1.53,1.53v13.34c0,0.72,0.59,1.31,1.31,1.31l42.14,0v-46.5L367.29,15.33z"/>
</g>
<line class="st1" x1="251.74" y1="173.5" x2="251.74" y2="13.5"/>
<g>
	<g>
		<g>
			<path class="st2" d="M116.36,65.43c-3.63-3.67-7.93-12.29-7.51-17.6c0.46-5.78,3.3-8.52,6.44-13.39c1.58-2.44,2.93-3.5,4.44-5.99
				c3.71-6.16,3.93-10.83,5.57-17.58c1.34,5.56,8.23,15.91,4.23,24.92c-1.52,3.43-3.43,4.76-5.66,7.77
				c-2.02,2.73-3.55,4.02-5.23,6.95C115.74,55.62,115.87,58.31,116.36,65.43z"/>
		</g>
		<g>
			<path class="st2" d="M108.67,39.49c-2.26-2.28-4.94-7.66-4.68-10.96c0.28-3.6,2.05-5.31,4.01-8.34c0.98-1.52,1.83-2.18,2.76-3.73
				c2.31-3.84,2.45-6.75,3.47-10.95c0.83,3.46,5.13,9.91,2.64,15.52c-0.95,2.13-2.13,2.96-3.52,4.84c-1.26,1.7-2.21,2.5-3.26,4.33
				C108.28,33.38,108.36,35.05,108.67,39.49z"/>
		</g>
		<g>
			<path class="st2" d="M126.97,41.92c15.64-4.28,37.24-9.09,49.55-9.45c-12.22,0.18-29.43,2.88-48.07,7.64L126.97,41.92z"/>
		</g>
		<path class="st2" d="M165.78,64.75C131.71,74,72.8,80.95,70.48,73.01c-1.81-6.2,13.65-16.25,37.14-24.97
			c-0.02-1.21,0.15-1.61,0.43-2.2C76.94,56.28,55.26,69.75,58.42,77.13C61.99,85.45,120.36,79.73,165.78,64.75z"/>
	</g>
	<g>
		<path class="st2" d="M119.46,170.39v-5.26h1.01c1.43,0,2.99,0.08,2.99,2.47c0,2.52-1.51,2.8-3.29,2.8H119.46z M129.19,178.96
			c0-0.49-0.11-0.58-0.58-0.58h-1.26l-3.32-5.78c1.01-0.52,3.12-1.54,3.12-5.07c0-5.15-4.28-5.29-6.39-5.29h-6.41
			c-0.47,0-0.58,0.08-0.58,0.58v1.48c0,0.49,0.11,0.58,0.58,0.58h1.4v13.51h-1.4c-0.47,0-0.58,0.08-0.58,0.58v1.48
			c0,0.49,0.11,0.58,0.58,0.58h6.39c0.47,0,0.58-0.08,0.58-0.58v-1.48c0-0.49-0.11-0.58-0.58-0.58h-1.29v-5.13h1.32l3.7,7.37
			c0.19,0.36,0.19,0.38,0.63,0.38h3.51c0.47,0,0.58-0.08,0.58-0.58V178.96z"/>
		<path class="st2" d="M161.87,162.25c-0.49,0-0.6,0.08-0.6,0.58v1.48c0,0.49,0.11,0.58,0.58,0.58h1.4v13.51h-1.4
			c-0.47,0-0.58,0.08-0.58,0.58v1.48c0,0.47,0.11,0.58,0.58,0.58h6.22c4.88,0,8.06-1.62,8.06-9.48c0-7.59-2.74-9.29-7.97-9.29
			H161.87z M166.95,178.06v-12.85h1.04c3.07,0,4.25,1.37,4.25,6.28c0,5.23-1.15,6.58-4.25,6.58H166.95z"/>
		<path class="st2" d="M194.78,178.96c0-0.49-0.11-0.58-0.58-0.58h-0.93l-4.69-15.7c-0.11-0.38-0.17-0.44-0.6-0.44h-2.85
			c-0.47,0-0.49,0.05-0.6,0.44l-4.8,15.7h-0.82c-0.47,0-0.58,0.08-0.58,0.58v1.48c0,0.49,0.11,0.58,0.58,0.58h5.43
			c0.47,0,0.57-0.08,0.57-0.58v-1.48c0-0.49-0.11-0.58-0.57-0.58h-0.9l0.6-2.38h4.71l0.63,2.38h-0.88c-0.47,0-0.58,0.08-0.58,0.58
			v1.48c0,0.49,0.11,0.58,0.58,0.58h5.7c0.47,0,0.58-0.08,0.58-0.58V178.96z M188.06,173.54h-3.62l1.21-4.71
			c0.27-1.1,0.52-2.69,0.63-3.84h0.06c0.14,1.15,0.3,2.77,0.6,3.84L188.06,173.54z"/>
		<path class="st2" d="M198.18,162.25c-0.49,0-0.6,0.08-0.6,0.58v1.48c0,0.49,0.11,0.58,0.57,0.58h1.4v13.51h-1.4
			c-0.47,0-0.57,0.08-0.57,0.58v1.48c0,0.47,0.11,0.58,0.57,0.58h6.22c4.88,0,8.06-1.62,8.06-9.48c0-7.59-2.74-9.29-7.98-9.29
			H198.18z M203.25,178.06v-12.85h1.04c3.07,0,4.25,1.37,4.25,6.28c0,5.23-1.15,6.58-4.25,6.58H203.25z"/>
		<g>
			<path class="st2" d="M58.04,164.89h1.4c0.47,0,0.58-0.08,0.58-0.58v-1.48c0-0.49-0.11-0.57-0.58-0.57h-5.92
				c-0.47,0-0.58,0.08-0.58,0.57v1.48c0,0.49,0.11,0.58,0.58,0.58h1.37v6.63c0,0.88,0.11,2.69,0.11,3.56h-0.05
				c-0.33-1.12-0.88-2.52-1.64-3.97l-4.55-8.5c-0.16-0.3-0.22-0.36-0.63-0.36h-4.22c-0.47,0-0.58,0.08-0.58,0.57v1.48
				c0,0.49,0.11,0.58,0.58,0.58h1.4v13.51h-1.4c-0.47,0-0.58,0.08-0.58,0.58v1.48c0,0.49,0.11,0.57,0.58,0.57h5.92
				c0.47,0,0.58-0.08,0.58-0.57v-1.48c0-0.49-0.11-0.58-0.58-0.58h-1.37v-7.81c0-1.26-0.14-2.11-0.14-3.02h0.06
				c0.52,1.56,0.8,2.22,1.62,3.73l5.04,9.35c0.17,0.33,0.25,0.38,0.63,0.38h1.81c0.49,0,0.58-0.08,0.58-0.57V164.89z"/>
		</g>
		<g>
			<path class="st2" d="M37.39,164.89h1.4c0.47,0,0.58-0.08,0.58-0.58v-1.48c0-0.49-0.11-0.57-0.58-0.57h-6.47
				c-0.47,0-0.58,0.08-0.58,0.57v1.48c0,0.49,0.11,0.58,0.58,0.58h1.37v9.78c0,1.97-0.14,3.86-2.91,3.86
				c-2.77,0-2.91-1.89-2.91-3.86v-9.78h1.37c0.47,0,0.58-0.08,0.58-0.58v-1.48c0-0.49-0.11-0.57-0.58-0.57h-6.47
				c-0.47,0-0.58,0.08-0.58,0.57v1.48c0,0.49,0.11,0.58,0.58,0.58h1.4v9.78c0,4.08,1.43,6.82,6.61,6.82c5.18,0,6.6-2.74,6.6-6.82
				V164.89z"/>
		</g>
		<g>
			<path class="st2" d="M72.29,178.98c0-0.49-0.11-0.58-0.58-0.58h-1.4v-13.51h1.4c0.47,0,0.58-0.08,0.58-0.58v-1.48
				c0-0.49-0.11-0.57-0.58-0.57h-6.5c-0.47,0-0.58,0.08-0.58,0.57v1.48c0,0.49,0.11,0.58,0.58,0.58h1.4v13.51h-1.4
				c-0.47,0-0.58,0.08-0.58,0.58v1.48c0,0.49,0.11,0.57,0.58,0.57h6.5c0.47,0,0.58-0.08,0.58-0.57V178.98z"/>
		</g>
		<g>
			<path class="st2" d="M140.74,167.3c0,0.38,0.08,0.47,0.47,0.47h2.03c0.36,0,0.47-0.08,0.47-0.47v-3.7c0-1.1-2.99-1.81-4.91-1.81
				c-3.18,0-6.03,1.64-6.03,5.59c0,2.28,0.93,3.37,2.39,4.25c2.8,1.7,5.59,1.95,5.59,4.39c0,1.7-0.93,2.52-2.47,2.52
				c-1.18,0-2.17-0.41-2.58-0.55v-2.49c0-0.38-0.08-0.47-0.47-0.47h-2.03c-0.38,0-0.47,0.11-0.47,0.47v4.14
				c0,1.2,3.59,1.86,5.65,1.86c3.45,0,5.92-2.3,5.92-5.78c0-2.08-0.96-3.54-2.36-4.58c-2.41-1.78-5.62-2.17-5.62-4.25
				c0-1.64,1.32-2.14,2.58-2.14c0.9,0,1.53,0.25,1.84,0.36V167.3z"/>
		</g>
		<g>
			<path class="st2" d="M109.31,176.15c0-0.49-0.08-0.58-0.58-0.58h-1.81c-0.52,0-0.58,0.11-0.58,0.58v1.92h-3.48v-5.37h4.66
				c0.47,0,0.58-0.08,0.58-0.58v-1.81c0-0.49-0.08-0.58-0.58-0.58h-4.66v-4.52h3.48v1.67c0,0.49,0.11,0.58,0.58,0.58h1.81
				c0.44,0,0.58-0.08,0.58-0.58v-4.17c0-0.41-0.14-0.47-0.58-0.47H97.77c-0.47,0-0.58,0.08-0.58,0.57v1.48
				c0,0.49,0.11,0.58,0.58,0.58h1.4v13.51h-1.4c-0.47,0-0.58,0.08-0.58,0.58v1.48c0,0.49,0.11,0.57,0.58,0.57h10.99
				c0.47,0,0.55-0.08,0.55-0.57V176.15z"/>
		</g>
		<g>
			<path class="st2" d="M91.48,164.89h1.07c0.38,0,0.47-0.08,0.47-0.47v-1.7c0-0.38-0.08-0.47-0.47-0.47h-3.73
				c-0.36,0-0.41,0.03-0.49,0.38l-2.69,10.94c-0.22,0.88-0.66,2.93-0.82,4.19h-0.05c-0.16-1.26-0.49-3.32-0.69-4.19l-2.41-10.94
				c-0.08-0.36-0.14-0.38-0.49-0.38h-4c-0.38,0-0.47,0.08-0.47,0.47v1.7c0,0.38,0.08,0.47,0.47,0.47h1.07l4.39,16.14
				c0.11,0.38,0.14,0.47,0.6,0.47h3.12c0.47,0,0.49-0.08,0.6-0.47L91.48,164.89z"/>
		</g>
		<g>
			<path class="st2" d="M156.32,178.98c0-0.49-0.11-0.58-0.58-0.58h-1.4v-13.51h1.4c0.47,0,0.58-0.08,0.58-0.58v-1.48
				c0-0.49-0.11-0.57-0.58-0.57h-6.5c-0.47,0-0.57,0.08-0.57,0.57v1.48c0,0.49,0.11,0.58,0.57,0.58h1.4v13.51h-1.4
				c-0.47,0-0.57,0.08-0.57,0.58v1.48c0,0.49,0.11,0.57,0.57,0.57h6.5c0.47,0,0.58-0.08,0.58-0.57V178.98z"/>
		</g>
	</g>
	<g>
		<g>
			<g>
				<path class="st2" d="M163.95,137.97c0,1.06,0,3.85-0.2,6.64c-0.13,1.92-0.73,3.38-2.06,3.65c-0.6,0.13-1.39,0.27-1.99,0.27
					c-0.4,0-0.53,0.2-0.53,0.4c0,0.4,0.33,0.53,1.06,0.53c1.99,0,6.18-0.2,6.51-0.2c0.33,0,4.52,0.2,8.17,0.2
					c0.73,0,1.06-0.2,1.06-0.53c0-0.2-0.13-0.4-0.53-0.4c-0.6,0-2.06-0.13-2.99-0.27c-1.99-0.27-2.59-1.72-2.72-3.65
					c-0.2-2.79-0.2-5.57-0.2-6.64v-5.71c0-2.19,0-4.25,1-6.64c1.2-2.85,10.5-18.45,12.69-21.1c1.46-1.79,2.19-2.59,3.52-3.38
					c1.06-0.66,2.33-0.93,3.06-0.93c0.53,0,0.86-0.2,0.86-0.53c0-0.27-0.4-0.4-0.86-0.4c-1.26,0-6.05,0.2-6.45,0.2
					c-0.53,0-2.66-0.2-4.38-0.2c-0.66,0-1.06,0.13-1.06,0.4c0,0.33,0.4,0.46,1,0.66c0.8,0.2,1.06,0.93,1.06,1.86
					c0,0.86-0.27,1.99-1.13,3.38c-1.33,2.19-9.77,16.72-11.03,19.51c-1.2-1.92-11.16-19.05-12.23-20.97c-0.53-1-0.86-1.79-0.86-2.59
					c0-0.53,0.33-0.93,0.86-1.19c0.6-0.27,1-0.33,1-0.6c0-0.27-0.13-0.46-0.86-0.46c-2.59,0-5.12,0.2-5.58,0.2
					c-0.33,0-5.32-0.2-6.58-0.2c-0.6,0-0.86,0.2-0.86,0.46c0,0.33,0.33,0.46,0.66,0.46c0.6,0,1.86,0.4,2.86,1.06
					c1.2,0.8,2.86,2.46,4.52,4.91c2.33,3.45,11.23,18.05,11.69,19.11c0.86,1.92,1.53,3.38,1.53,6.97V137.97z"/>
			</g>
			<g>
				<path class="st2" d="M202.8,149.75c3.52,0,7.03-0.78,9.83-2.73c4.49-3.19,5.54-8.13,5.54-10.8c0-5.2-1.82-9.24-9.51-15.29
					l-1.82-1.43c-6.12-5.01-7.95-7.22-7.95-10.93c0-4.75,3.52-7.55,8.01-7.55c5.99,0,7.75,2.73,8.14,3.45
					c0.39,0.72,0.78,2.47,0.85,3.25c0.07,0.52,0.13,0.85,0.52,0.85c0.33,0,0.46-0.46,0.46-1.5c0-4.42,0.26-6.57,0.26-6.9
					c0-0.33-0.13-0.46-0.65-0.46c-0.52,0-1.04-0.07-2.28-0.33c-1.63-0.39-3.52-0.65-6.06-0.65c-8.27,0-13.48,4.75-13.48,11.71
					c0,4.42,1.56,8.46,8.47,14.12l2.93,2.41c5.6,4.62,7.49,7.22,7.49,11.71c0,4.16-3.06,8.65-9.31,8.65c-4.36,0-8.66-1.82-9.64-6.64
					c-0.19-0.91-0.19-1.82-0.19-2.41c0-0.52-0.06-0.72-0.46-0.72c-0.33,0-0.46,0.33-0.52,1.04c-0.06,1.04-0.33,3.64-0.33,6.9
					c0,1.76,0.06,2.02,0.98,2.47C196.74,149.29,199.74,149.75,202.8,149.75z"/>
			</g>
			<g>
				<path class="st2" d="M119.07,102.14l8.37,0.13c6.38,0.13,7.91,1.66,8.17,3.65l0.07,0.73c0.07,0.93,0.2,1.13,0.53,1.13
					c0.27,0,0.47-0.27,0.47-0.86c0-0.73,0.2-5.31,0.2-7.3c0-0.4,0-0.8-0.33-0.8c-0.53,0-2.33,0.66-6.58,0.66h-24.92
					c-0.8,0-3.32-0.13-5.25-0.33c-1.79-0.13-2.46-0.8-2.92-0.8c-0.27,0-0.53,0.86-0.66,1.26c-0.13,0.53-1.46,6.24-1.46,6.9
					c0,0.4,0.13,0.6,0.33,0.6c0.27,0,0.46-0.13,0.66-0.66c0.2-0.46,0.4-0.93,1.13-2.06c1.06-1.59,2.66-2.06,6.78-2.12l9.83-0.13
					v28.07c0,6.37,0,11.61-0.33,14.4c-0.27,1.92-0.6,3.38-1.93,3.65c-0.6,0.13-1.4,0.27-1.99,0.27c-0.4,0-0.53,0.2-0.53,0.4
					c0,0.4,0.33,0.53,1.06,0.53c1.99,0,6.18-0.2,6.51-0.2c0.33,0,4.52,0.2,8.17,0.2c0.73,0,1.06-0.2,1.06-0.53
					c0-0.2-0.13-0.4-0.53-0.4c-0.6,0-2.06-0.13-2.99-0.27c-1.99-0.27-2.39-1.72-2.59-3.65c-0.33-2.79-0.33-8.03-0.33-14.4V102.14z"
					/>
			</g>
			<g>
				<path class="st2" d="M64.9,130.2c0,6.37,0,11.61-0.33,14.4c-0.27,1.92-0.6,3.39-1.93,3.65c-0.6,0.13-1.4,0.27-1.99,0.27
					c-0.4,0-0.53,0.2-0.53,0.4c0,0.4,0.33,0.53,1.06,0.53c1.99,0,6.18-0.2,6.51-0.2c1.93,0,6.38,0.4,16.41,0.4
					c2.59,0,3.12,0,3.59-1.73c0.33-1.39,0.86-5.91,0.86-6.44c0-0.46,0-1-0.4-1c-0.33,0-0.47,0.27-0.6,1
					c-0.46,2.72-1.26,4.05-2.99,4.78c-1.73,0.73-4.65,0.73-6.38,0.73c-6.51,0-7.51-0.86-7.71-5.44c-0.07-1.39,0-9.09,0-11.35v-5.84
					c0-0.27,0.13-0.46,0.46-0.46c1.13,0,7.71,0.13,9.5,0.33c2.59,0.26,3.19,1.39,3.45,2.32c0.27,0.86,0.27,1.53,0.27,2.19
					c0,0.33,0.13,0.6,0.47,0.6c0.46,0,0.46-0.73,0.46-1.26c0-0.46,0.13-2.92,0.27-4.25c0.2-2.19,0.53-3.32,0.53-3.72
					c0-0.4-0.13-0.53-0.33-0.53c-0.27,0-0.53,0.33-1,0.86c-0.6,0.66-1.53,0.8-3.12,0.93c-1.53,0.13-9.7,0.13-10.56,0.13
					c-0.33,0-0.4-0.2-0.4-0.66v-18.31c0-0.46,0.13-0.66,0.4-0.66c0.73,0,7.97,0.07,9.1,0.2c3.59,0.4,4.25,1.19,4.72,2.26
					c0.33,0.8,0.4,1.92,0.4,2.39c0,0.53,0.13,0.86,0.53,0.86c0.27,0,0.4-0.4,0.47-0.73c0.13-0.8,0.27-3.72,0.33-4.38
					c0.2-1.86,0.53-2.65,0.53-3.12c0-0.33-0.07-0.6-0.27-0.6c-0.33,0-0.6,0.27-0.93,0.33c-0.53,0.13-1.59,0.27-2.86,0.33
					c-1.53,0.07-14.75,0.07-15.22,0.07c-0.33,0-4.52-0.2-7.51-0.2c-0.73,0-1.06,0.13-1.06,0.53c0,0.27,0.27,0.4,0.53,0.4
					c0.6,0,1.73,0.07,2.26,0.2c2.19,0.46,2.72,1.53,2.86,3.78c0.13,2.12,0.13,3.98,0.13,14.33V130.2z"/>
			</g>
			<g>
				<path class="st2" d="M35.28,150.47c4.25,0,9.31-0.46,11.96-1.53c1.2-0.53,1.33-0.66,1.73-1.92c0.66-2.26,1.46-8.03,1.46-8.5
					c0-0.53-0.13-1-0.47-1c-0.4,0-0.53,0.27-0.66,1c-0.2,1.19-1.06,4.12-2.46,5.58c-2.66,2.72-6.58,3.32-11.57,3.32
					c-14.22,0-24-11.62-24-24.3c0-6.77,1.13-12.68,5.98-17.33c2.33-2.26,6.45-4.85,15.29-4.85c5.85,0,10.97,1.79,13.29,3.78
					c1.73,1.46,2.79,4.18,2.79,6.77c0,0.93,0.07,1.39,0.53,1.39c0.4,0,0.53-0.4,0.6-1.39c0.07-1,0.07-4.65,0.2-6.84
					c0.13-2.39,0.33-3.19,0.33-3.72c0-0.4-0.13-0.66-0.86-0.73c-2.13-0.13-4.25-0.53-6.78-1c-3.26-0.6-6.98-0.8-9.64-0.8
					c-10.24,0-16.29,3.12-20.27,7.1c-5.92,5.91-7.44,13.68-7.44,18.12c0,6.31,1.59,13.88,8.04,19.65
					C18.6,148.02,25.31,150.47,35.28,150.47z"/>
			</g>
		</g>
		<path class="st2" d="M225.54,146.11v-1.17h0.75c0.09,0,0.19,0.01,0.28,0.03c0.1,0.01,0.19,0.04,0.26,0.08
			c0.08,0.04,0.14,0.1,0.18,0.17c0.05,0.07,0.08,0.17,0.08,0.29c0,0.15-0.03,0.26-0.08,0.34c-0.05,0.08-0.12,0.14-0.21,0.18
			c-0.09,0.04-0.19,0.06-0.31,0.08c-0.11,0.01-0.23,0.01-0.36,0.01H225.54z M224.97,144.49v3.67h0.57v-1.58h0.6l1,1.58h0.61
			l-1.05-1.62c0.27-0.03,0.5-0.12,0.69-0.27c0.18-0.16,0.28-0.4,0.28-0.73c0-0.35-0.11-0.62-0.32-0.79
			c-0.21-0.17-0.53-0.26-0.96-0.26H224.97z M223.6,146.31c0-0.37,0.06-0.72,0.19-1.05c0.13-0.32,0.32-0.6,0.54-0.84
			c0.23-0.24,0.51-0.43,0.82-0.56c0.32-0.14,0.66-0.21,1.03-0.21c0.36,0,0.7,0.07,1.01,0.21c0.31,0.13,0.58,0.32,0.81,0.56
			c0.23,0.23,0.42,0.51,0.55,0.84c0.13,0.32,0.2,0.67,0.2,1.05c0,0.39-0.07,0.74-0.2,1.07c-0.13,0.32-0.31,0.61-0.55,0.85
			c-0.23,0.24-0.5,0.43-0.81,0.57c-0.31,0.13-0.65,0.2-1.01,0.2c-0.37,0-0.71-0.07-1.03-0.2c-0.31-0.14-0.59-0.33-0.82-0.57
			c-0.23-0.24-0.41-0.52-0.54-0.85C223.66,147.05,223.6,146.69,223.6,146.31z M223.03,146.31c0,0.45,0.08,0.87,0.25,1.26
			c0.17,0.38,0.4,0.71,0.68,1c0.29,0.28,0.63,0.5,1.01,0.65c0.39,0.16,0.8,0.23,1.23,0.23c0.43,0,0.84-0.08,1.22-0.23
			c0.38-0.16,0.71-0.37,1-0.65c0.28-0.29,0.51-0.62,0.68-1c0.17-0.39,0.25-0.81,0.25-1.26c0-0.44-0.08-0.85-0.25-1.23
			c-0.17-0.38-0.39-0.71-0.68-0.99c-0.29-0.28-0.62-0.5-1-0.65c-0.38-0.16-0.78-0.24-1.22-0.24c-0.43,0-0.84,0.08-1.23,0.24
			c-0.38,0.16-0.72,0.37-1.01,0.65c-0.28,0.28-0.51,0.61-0.68,0.99C223.11,145.45,223.03,145.87,223.03,146.31z"/>
	</g>
</g>
</svg>
